<?xml version="1.0" encoding="UTF-8" standalone="no"?> <svg width="48" height="48" viewBox="0 0 48 48" fill="none" xmlns="http://www.w3.org/2000/svg">
<path d="M3 23C3.18116 23.0001 3.3589 22.9506 3.514 22.857L18.063 14.127L28.586 18.91C28.743 18.9815 28.9159 19.0112 29.0878 18.9961C29.2597 18.981 29.4248 18.9217 29.567 18.824L43.536 9.19999L43.036 11.684C42.9839 11.944 43.0372 12.2141 43.1842 12.4349C43.3313 12.6556 43.56 12.8089 43.82 12.861C43.8859 12.8738 43.9529 12.8801 44.02 12.88C44.2504 12.8798 44.4736 12.8001 44.652 12.6543C44.8303 12.5086 44.9529 12.3057 44.999 12.08L45.979 7.17999C46.0321 6.92022 45.9799 6.64998 45.8338 6.4287C45.6877 6.20742 45.4598 6.05321 45.2 5.99999L40.3 5.01999C40.0401 4.96695 39.7697 5.01933 39.5485 5.1656C39.3272 5.31188 39.173 5.54008 39.12 5.79999C39.067 6.0599 39.1193 6.33024 39.2656 6.55153C39.4119 6.77283 39.6401 6.92695 39.9 6.97999L42.485 7.49799L28.9 16.855L18.414 12.09C18.2664 12.0229 18.1048 11.9926 17.943 12.0019C17.7811 12.0111 17.624 12.0595 17.485 12.143L2.485 21.143C2.29767 21.2556 2.15241 21.4265 2.07144 21.6296C1.99048 21.8326 1.97827 22.0566 2.03668 22.2672C2.0951 22.4779 2.22092 22.6636 2.39489 22.7959C2.56887 22.9282 2.78141 22.9999 3 23V23Z" fill="black"/>
<path d="M45 40V18C45 17.4696 44.7893 16.9609 44.4142 16.5858C44.0391 16.2107 43.5304 16 43 16H38C37.4696 16 36.9609 16.2107 36.5858 16.5858C36.2107 16.9609 36 17.4696 36 18V40H34V25C34 24.4696 33.7893 23.9609 33.4142 23.5858C33.0391 23.2107 32.5304 23 32 23H27C26.4696 23 25.9609 23.2107 25.5858 23.5858C25.2107 23.9609 25 24.4696 25 25V40H23V22C23 21.4696 22.7893 20.9609 22.4142 20.5858C22.0391 20.2107 21.5304 20 21 20H16C15.4696 20 14.9609 20.2107 14.5858 20.5858C14.2107 20.9609 14 21.4696 14 22V40H12V28C12 27.4696 11.7893 26.9609 11.4142 26.5858C11.0391 26.2107 10.5304 26 10 26H5C4.46957 26 3.96086 26.2107 3.58579 26.5858C3.21071 26.9609 3 27.4696 3 28V40C2.73478 40 2.48043 40.1054 2.29289 40.2929C2.10536 40.4804 2 40.7348 2 41C2 41.2652 2.10536 41.5196 2.29289 41.7071C2.48043 41.8946 2.73478 42 3 42H45C45.2652 42 45.5196 41.8946 45.7071 41.7071C45.8946 41.5196 46 41.2652 46 41C46 40.7348 45.8946 40.4804 45.7071 40.2929C45.5196 40.1054 45.2652 40 45 40ZM38 18H43V40H38V18ZM27 25H32V40H27V25ZM16 22H21V40H16V22ZM5 28H10V40H5V28Z" fill="black"/>
</svg>
